<svg xmlns="http://www.w3.org/2000/svg" xmlns:xlink="http://www.w3.org/1999/xlink" width="502.667" height="402.709" viewBox="0 0 502.667 402.709">
  <defs>
    <linearGradient id="linear-gradient" x1="0.503" y1="0.011" x2="0.503" y2="0.994" gradientUnits="objectBoundingBox">
      <stop offset="0" stop-color="#cf6f70"/>
      <stop offset="1" stop-color="#f89888"/>
    </linearGradient>
    <linearGradient id="linear-gradient-2" x1="0.504" y1="0.011" x2="0.504" y2="0.994" xlink:href="#linear-gradient"/>
    <linearGradient id="linear-gradient-3" x1="0.497" y1="0.011" x2="0.497" y2="0.994" xlink:href="#linear-gradient"/>
    <linearGradient id="linear-gradient-4" x1="0.494" y1="0.02" x2="0.494" y2="1.003" xlink:href="#linear-gradient"/>
    <linearGradient id="linear-gradient-5" x1="0.498" y1="0.022" x2="0.498" y2="1.011" xlink:href="#linear-gradient"/>
    <linearGradient id="linear-gradient-6" x1="0.66" y1="-0.212" x2="0.66" y2="0.779" xlink:href="#linear-gradient"/>
  </defs>
  <g id="_2362208" data-name="2362208" transform="translate(-30.599 -67.134)">
    <path id="XMLID_298_" d="M100.432,458.541s-36.921-41.664-50.809-78.585C33.7,337.615,36.977,290.08,60.575,262.192c33.76-39.857,92.134-38.841,126.007-30.711,49.454,11.743,90.666-8.355,117.652-50.809,31.953-50.47,77.456-91.8,143.169-72.939,65.713,18.969,98.683,79.262,79.036,175.8-16.936,83.214-70.794,175.009-70.794,175.009Z" transform="translate(1.188 4.641)" fill="#eb095e"/>
    <g id="XMLID_288_" transform="translate(57.924 152.172)">
      <path id="XMLID_141_" d="M136.6,201.2s1.694.339,8.807,16.711,16.485,34.324,16.485,34.324l-13.436,9.033-10.5-21.566Z" transform="translate(-44.24 -134.865)" fill="#f89888"/>
      <path id="XMLID_229_" d="M153.394,231.7a23.116,23.116,0,0,1-5.533,6.323c-3.952,3.387-7.226,3.726-7.226,3.726l-2.936-5.984Z" transform="translate(-44.098 -130.928)" fill="#cf6f70"/>
      <path id="XMLID_139_" d="M136.2,200.2c1.807.452,3.839.9,7.452,9.371,5.984,14,10.839,25.179,10.839,25.179s-5.758,7.226-18.291,9.936V200.2Z" transform="translate(-44.292 -134.994)" fill="#41d8d3"/>
      <path id="XMLID_317_" d="M151.643,237.573c-2.484,1.807-7.226,2.823-8.581,1.468-1.581-1.581-1.581-3.274-2.484-16.6A94.652,94.652,0,0,0,136.4,200.2v44.486A36.832,36.832,0,0,0,151.643,237.573Z" transform="translate(-44.266 -134.994)" fill="#35bdb3"/>
      <path id="XMLID_136_" d="M84.984,342,75.5,417.762l9.6,1.694,16.936-75.536Z" transform="translate(-52.128 -116.689)" fill="#f89888"/>
      <path id="XMLID_232_" d="M100.988,343.894l-.565,2.6s-10.275,1.242-16.824-1.468l.339-2.823Z" transform="translate(-51.082 -116.663)" fill="#cf6f70"/>
      <path id="XMLID_131_" d="M116.8,343.494l3.839,74.294H130.8l2.936-75.988Z" transform="translate(-46.796 -116.715)" fill="#f89888"/>
      <path id="XMLID_233_" d="M120.652,417.788h1.468l-1.468-71.02s9.259-.79,12.985-2.823l.113-2.145L116.7,343.494Z" transform="translate(-46.809 -116.715)" fill="#cf6f70"/>
      <path id="XMLID_130_" d="M89.455,283.19s-8.468,64.245-8.355,65.6,21.114,3.161,22.243,2.823,11.743-49.793,11.743-49.793,3.161,48.325,3.726,49.228,22.469-1.242,23.033-2.371.226-66.278.226-66.278Z" transform="translate(-51.405 -124.383)" fill="#3e65ae"/>
      <path id="XMLID_484_" d="M81.2,348.6c.113.9,9.6,2.032,16.146,2.6l.226-.113c-8.355-.565-11.4-2.71-11.291-5.081s1.694-14.9,1.694-14.9,6.549,1.919,12.307-1.242c6.775-3.726,6.662-9.033,6.662-9.033-9.71,9.71-18.969,5.42-18.969,5.42L93.394,283h0l-3.952.113S81.087,347.245,81.2,348.6Z" transform="translate(-51.392 -124.305)" fill="#315095"/>
      <path id="XMLID_482_" d="M125.088,348.49s-5.081-.565-5.871-2.032c-.677-1.468-6.323-37.825-8.017-46.857,0,0,3.161,48.325,3.726,49.229C115.265,349.167,120.007,348.941,125.088,348.49Z" transform="translate(-47.519 -122.162)" fill="#315095"/>
      <path id="XMLID_481_" d="M112.776,308.156c.9-3.952,1.355-6.436,1.355-6.436s.226,3.5.565,8.581c1.468,1.468,3.613,3.161,5.533,3.274,3.274.226,20.211-16.711,21.114-17.614,0-8.017-.113-13.662-.113-13.662l-52.729.79s5.871,5.871,9.033,7.452C100.581,292.236,112.776,308.156,112.776,308.156Z" transform="translate(-50.45 -124.396)" fill="#315095"/>
      <path id="XMLID_127_" d="M120.319,404.871c1.242,0,2.936,5.081,4.291,5.081s4.855-7.339,6.323-7.452,3.049,5.194,4.968,7,13.436,5.42,15.807,5.984S155.1,417.4,155.1,420H117.609a13.014,13.014,0,0,1,.79-6.1C119.642,410.743,119.077,404.871,120.319,404.871Z" transform="translate(-46.702 -108.879)" fill="#2f256a"/>
      <path id="XMLID_124_" d="M89.576,404.871c-1.242,0-2.936,5.081-4.291,5.081s-4.855-7.339-6.323-7.452-3.049,5.194-4.968,7-13.436,5.42-15.807,5.984S54.8,417.4,54.8,420H92.286a13.014,13.014,0,0,0-.79-6.1C90.254,410.743,90.818,404.871,89.576,404.871Z" transform="translate(-54.8 -108.879)" fill="#2f256a"/>
      <path id="XMLID_235_" d="M85.055,417.823a18,18,0,0,0-.565-4.4,14.2,14.2,0,0,1-.677-6.323c.79-1.242,1.468-2.6,2.145-2.6,1.242,0,.677,5.871,1.919,9.033a13.91,13.91,0,0,1,.9,4.29Z" transform="translate(-51.07 -108.621)" fill="#291d51"/>
      <path id="XMLID_121_" d="M154.873,416.3H117.5v1.807h37.6A4.972,4.972,0,0,0,154.873,416.3Z" transform="translate(-46.706 -107.097)" fill="#fff"/>
      <path id="XMLID_120_" d="M92.4,416.3H55.026a9.882,9.882,0,0,0-.226,1.807H92.4Z" transform="translate(-54.8 -107.097)" fill="#fff"/>
      <path id="XMLID_117_" d="M109.594,185.7v8.242c0,2.71-.9,3.613-8.694,6.436,0,0,2.145,4.629,17.162,4.629s17.162-4.629,17.162-4.629c-7.791-2.823-8.694-3.726-8.694-6.436V185.7Z" transform="translate(-48.849 -136.866)" fill="#f89888"/>
      <path id="XMLID_293_" d="M108.6,189.439s5.984,3.5,9.823,3.839a12.667,12.667,0,0,0,7.113-1.468V185.6H108.6Z" transform="translate(-47.855 -136.879)" fill="#cf6f70"/>
      <path id="XMLID_113_" d="M133.845,170.811a17.6,17.6,0,0,0,1.016-1.919c.79-1.694,1.694-10.5-.9-16.033a7.122,7.122,0,0,0,4.065-3.387c1.468-2.823.677-2.258-2.145-1.807s-7.678-.565-7.678-.565Z" transform="translate(-45.325 -141.849)" fill="#242357"/>
      <path id="XMLID_111_" d="M121.751,148c-8.355,0-17.275,2.258-17.275,19.195a5.125,5.125,0,0,0-5.871,0c-3.5,2.484-3.161,7.113-1.242,10.388s5.307,5.081,8.017,3.5c0,0,1.129,6.323,1.919,7.678.9,1.355,11.517,5.533,14.9,5.533s12.194-4.629,13.549-7.565,2.258-14.452,2.258-20.1S137.446,148,121.751,148Z" transform="translate(-49.489 -141.733)" fill="#f89888"/>
      <path id="XMLID_295_" d="M129.839,161.2h0A3.807,3.807,0,0,0,126,165.039v1.242a3.807,3.807,0,0,0,3.839,3.839h0a3.807,3.807,0,0,0,3.839-3.839v-1.242A3.807,3.807,0,0,0,129.839,161.2Z" transform="translate(-45.609 -140.029)" fill="url(#linear-gradient)"/>
      <path id="XMLID_292_" d="M115.939,161.2h0a3.807,3.807,0,0,0-3.839,3.839v1.242a3.807,3.807,0,0,0,3.839,3.839h0a3.807,3.807,0,0,0,3.839-3.839v-1.242A3.739,3.739,0,0,0,115.939,161.2Z" transform="translate(-47.403 -140.029)" fill="url(#linear-gradient-2)"/>
      <path id="XMLID_296_" d="M119.755,148a23.1,23.1,0,0,0-8.355,1.242v2.032s1.129,4.178,8.129,5.758,12.081-1.129,13.662-2.936C130.933,150.71,126.869,148,119.755,148Z" transform="translate(-47.493 -141.733)" fill="#cf6f70"/>
      <path id="XMLID_109_" d="M104.016,167.911a34.7,34.7,0,0,0,.9,3.952c.339.79,3.387.113,2.823-1.355s-3.952-14.227,5.194-18.517c0,0,3.387,4.065,12.194,4.065,8.694,0,14.227-9.823,14.452-11.968s-1.355-1.694-3.613-.452c-2.371,1.242-10.5,2.258-10.5,2.258a17.3,17.3,0,0,0,2.823-2.145c1.129-1.016-.113-1.468-4.291-1.242-4.629.339-12.081,0-14.452,1.016-2.032.79-8.581,7.9-9.71,10.162-1.016,2.145.565,8.807.9,13.21A6.948,6.948,0,0,1,104.016,167.911Z" transform="translate(-49.029 -142.45)" fill="#2f256a"/>
      <path id="XMLID_108_" d="M121.966,201.845a13.585,13.585,0,0,1-12.759-5.533s-17.388,4.968-19.872,5.871c-2.484.79-2.371,4.291-1.468,17.84.9,13.662,2.71,30.6,2.71,35.341s-2.484,38.615-2.484,38.615,9.71,6.775,27.55,6.775,25.743-7.226,25.743-7.226,2.484-44.148,3.049-57.584-1.016-34.212-1.919-35.228c-1.016-1.016-12.194-4.516-12.194-4.516S130.434,201.055,121.966,201.845Z" transform="translate(-50.607 -135.511)" fill="#41d8d3"/>
      <path id="XMLID_299_" d="M103.607,291.53c-3.613-3.839-6.549-11.291-7.113-21.679-.677-12.307-.226-21.791.452-25.4,1.581-7.9,2.936-12.307,4.629-14.565s4.629-6.323,3.952-6.549c-.677-.113-3.952,3.049-3.952,3.049a27.96,27.96,0,0,0,0-8.242,15.988,15.988,0,0,0-3.049-7.339c1.468,3.839.79,10.5.79,10.5L87.8,215.091c.113.9.113,1.807.226,2.823.9,13.662,2.71,30.6,2.71,35.341s-2.71,38.841-2.71,38.841,9.71,6.775,27.55,6.775a52.683,52.683,0,0,0,11.968-1.242C115.576,297.627,105.978,293.9,103.607,291.53Z" transform="translate(-50.54 -133.626)" fill="#35bdb3"/>
      <g id="XMLID_291_" transform="translate(26.4 5.521)">
        <path id="XMLID_107_" d="M217.541,147.747a74.462,74.462,0,0,0-47.535,11.065,5.228,5.228,0,0,0-1.581,7.113l10.5,16.259a5.086,5.086,0,0,0,7,1.468,45.063,45.063,0,1,1,21.34,83.327,44.463,44.463,0,0,1-18.969-5.307,46.793,46.793,0,0,1-9.033-6.436,20.333,20.333,0,0,0-27.55.226l-5.645,5.307-44.486,41.664a5.148,5.148,0,0,0-.226,7.226l13.21,14.114a5.148,5.148,0,0,0,7.226.226l44.373-41.551a74.569,74.569,0,0,0,118.216-60.632C284.383,183.991,255.252,151.7,217.541,147.747Z" transform="translate(-75.367 -147.339)" fill="#68c7ea"/>
        <path id="XMLID_294_" d="M101.355,292.465l2.145,2.258a23.327,23.327,0,0,0,7.9.113c3.049-.565,3.952-2.145,3.952-2.145s4.742.677,5.194-.565c.565-1.242-.677-1.355-2.823-2.484,0,0-8.017-5.533-11.855-8.242l-4.178,3.952A4.92,4.92,0,0,0,101.355,292.465Z" transform="translate(-75.365 -130.033)" fill="#5b9dd3"/>
        <path id="XMLID_236_" d="M283.723,215.5a70.911,70.911,0,0,0-2.371-18.4c2.936,21.9-1.129,58.6-34.212,75.762-29.808,15.469-57.132,10.726-75.536-4.855a9.134,9.134,0,0,0-12.081.452c-11.968,11.517-37.26,35.792-40.2,38.163-3.613,2.936-8.242,6.21-14.227,1.468l8.807,9.371a5.148,5.148,0,0,0,7.226.226l44.373-41.551A74.569,74.569,0,0,0,283.723,215.5Z" transform="translate(-74.706 -140.915)" fill="#5b9dd3"/>
        <path id="XMLID_234_" d="M181.353,274.845a8.833,8.833,0,0,0,3.049-1.016,12.052,12.052,0,0,0,3.5-2.823,8.014,8.014,0,0,0,1.129-1.581,4.01,4.01,0,0,0,.452-1.016,1.391,1.391,0,0,0-.226-1.129,2.034,2.034,0,0,0-1.807-.677,20.966,20.966,0,0,0-6.436.79c-1.919.565-4.065,1.016-5.533,2.371-1.919,1.807.452,3.387,2.032,4.178a5.88,5.88,0,0,0,3.387.9Z" transform="translate(-65.713 -131.946)" fill="#5b9dd3"/>
        <circle id="XMLID_106_" cx="14.791" cy="14.791" r="14.791" transform="matrix(0.052, -0.999, 0.999, 0.052, 0, 199.291)" fill="#5b9dd3"/>
        <path id="XMLID_297_" d="M107.112,308.564v-1.129A14.813,14.813,0,0,0,94.24,298.4,14.6,14.6,0,0,0,79.9,307.435a13.617,13.617,0,0,0,27.211,1.129Z" transform="translate(-77.96 -127.841)" fill="#68c7ea"/>
        <path id="XMLID_300_" d="M171.289,182.171c-2.484-6.887-5.984-15.807-5.307-18.4s31.276-23.824,73.73-6.1a74.354,74.354,0,0,0-77.343,1.242,5.228,5.228,0,0,0-1.581,7.113Z" transform="translate(-67.617 -147.326)" fill="#84dff7"/>
        <path id="XMLID_105_" d="M228.155,249.925h0a44.964,44.964,0,0,1-23.824,5.42,44.464,44.464,0,0,1-18.969-5.307,46.8,46.8,0,0,1-9.033-6.436,20.333,20.333,0,0,0-27.55.226l-5.645,5.307L123.6,267.426h0c-.339.339,14.791-10.952,26.308-19.533a20.158,20.158,0,0,1,23.937-.226c5.645,4.065,12.646,8.129,21.792,9.823C212.347,260.538,221.719,254.554,228.155,249.925Z" transform="translate(-72.319 -135.592)" fill="#84dff7"/>
      </g>
      <path id="XMLID_104_" d="M170.4,274.805c4.516.226,9.71-4.516,12.985-6.21,3.613-1.807,10.952-3.161,10.049,1.242-1.016,4.742-2.6,6.662-5.42,9.033C185.191,281.354,171.868,278.87,170.4,274.805Z" transform="translate(-39.877 -126.385)" fill="#f89888"/>
      <path id="XMLID_103_" d="M123.05,166.4c-1.129-.339-1.919,10.162-.677,10.726s4.742-.113,5.194-1.129S124.179,166.74,123.05,166.4Z" transform="translate(-46.158 -139.359)" fill="#c46065"/>
      <circle id="XMLID_102_" cx="1.919" cy="1.919" r="1.919" transform="translate(66.617 26.139)" fill="#251836"/>
      <circle id="XMLID_101_" cx="1.919" cy="1.919" r="1.919" transform="translate(82.311 26.139)" fill="#251836"/>
      <path id="XMLID_100_" d="M120.659,160.5c-.9.9-3.161.9-4.855.9a5.045,5.045,0,0,0-4.4,1.694" transform="translate(-47.493 -140.119)" fill="none" stroke="#291d51" stroke-linecap="round" stroke-miterlimit="10" stroke-width="2"/>
      <path id="XMLID_99_" d="M126.8,161.5a5.12,5.12,0,0,1,4.4-.677,3.974,3.974,0,0,1,2.936,2.71" transform="translate(-45.505 -140.107)" fill="none" stroke="#291d51" stroke-linecap="round" stroke-miterlimit="10" stroke-width="2"/>
      <path id="XMLID_98_" d="M113.8,180.117a13.336,13.336,0,0,1,5.081.226,8.74,8.74,0,0,1,3.952,2.032" transform="translate(-47.183 -137.606)" fill="none" stroke="#cf6f70" stroke-linecap="round" stroke-miterlimit="10" stroke-width="1"/>
      <path id="XMLID_97_" d="M98,169.978a2.709,2.709,0,0,1,3.274-2.371c2.823.565,4.629,5.645,1.919,8.242" transform="translate(-49.224 -139.21)" fill="none" stroke="#cf6f70" stroke-linecap="round" stroke-miterlimit="10" stroke-width="1"/>
      <path id="XMLID_96_" d="M100.6,171.925a1.957,1.957,0,0,1,3.387-1.355" transform="translate(-48.889 -138.898)" fill="none" stroke="#cf6f70" stroke-linecap="round" stroke-miterlimit="10" stroke-width="1"/>
      <path id="XMLID_93_" d="M75.858,235.9l-6.21,15.807c-1.919,4.516-2.823,5.984,5.533,16.033s19.646,23.485,29.582,29.131c8.694,4.855,15.13,2.484,17.727.9.339-.226,1.242-.113,1.694-.226,4.4-.79-5.194-4.968-8.468-7.339a17.334,17.334,0,0,1-4.516-4.178l5.645-5.307s-.226-.9-2.371-.565-4.629,1.468-7.678,1.807c-3.049.226-4.855-.79-7.791-4.4s-13.888-21.453-13.888-21.453L91.1,241.094Z" transform="translate(-53.051 -130.386)" fill="#f89888"/>
      <path id="XMLID_227_" d="M90.159,241.107s-6.549,2.71-16.259-2.484l1.129-2.823Z" transform="translate(-52.334 -130.399)" fill="#cf6f70"/>
      <path id="XMLID_92_" d="M92.914,201.551c-1.919-1.242-4.629-.113-7.565,6.436S71.8,237,71.8,237s1.919,3.387,9.146,6.323a32.213,32.213,0,0,0,13.21,2.484s5.758-17.953,6.887-21.453C102.06,220.858,102.511,207.648,92.914,201.551Z" transform="translate(-52.605 -134.877)" fill="#41d8d3"/>
      <path id="XMLID_231_" d="M117.8,291.052c-2.936-.113-9.823-3.726-10.5-3.952a31.869,31.869,0,0,0,9.71,4.291A1.247,1.247,0,0,1,117.8,291.052Z" transform="translate(-48.023 -123.776)" fill="#cf6f70"/>
      <path id="XMLID_304_" d="M188.014,278.555c.452-.452,1.016-.9,1.355-1.242h0c-3.5,1.355-10.613.113-11.63-1.468s.452-3.274,2.6-5.645c-3.049,2.032-6.662,4.516-9.936,4.291C171.868,278.442,185.191,280.926,188.014,278.555Z" transform="translate(-39.877 -125.958)" fill="#cf6f70"/>
      <path id="XMLID_91_" d="M121.226,417.823a18,18,0,0,1,.565-4.4,14.2,14.2,0,0,0,.677-6.323c-.79-1.242-1.468-2.6-2.145-2.6-1.242,0-.677,5.871-1.919,9.033a13.91,13.91,0,0,0-.9,4.29Z" transform="translate(-46.706 -108.621)" fill="#291d51"/>
      <path id="XMLID_90_" d="M117.5,417.1v.9h37.6v-.9Z" transform="translate(-46.706 -106.994)" fill="#e6eff4"/>
      <path id="XMLID_237_" d="M92.4,417.1v.9H54.8v-.9Z" transform="translate(-54.8 -106.994)" fill="#e6eff4"/>
    </g>
    <g id="XMLID_282_" transform="translate(360.192 180.018)">
      <path id="XMLID_89_" d="M368.047,279.529c-.226,8.468-.79,36.47,0,68.988.79,32.631,3.274,63,3.274,63h9.823l10.388-112.006L424.275,411.52h10.162s-8.92-94.279-21.679-133.12Z" transform="translate(-316.682 -152.745)" fill="#3e65ae"/>
      <path id="XMLID_424_" d="M386.856,342.758l-.677,7.678a38.945,38.945,0,0,1-17.84,1.355L368,340.5Z" transform="translate(-316.636 -144.728)" fill="#315095"/>
      <path id="XMLID_419_" d="M390.236,297.1,376.8,403.009h4.065Z" transform="translate(-315.5 -150.331)" fill="#315095"/>
      <path id="XMLID_428_" d="M386.856,289.8a43.075,43.075,0,0,0,22.13-2.371l10.5,39.405-14.565,18.63,1.129,3.952s11.065-4.968,15.694-13.549l11.065,69.552h.9c-2.258-21.453-10.275-94.166-21-127.023L368,279.529A31.063,31.063,0,0,0,386.856,289.8Z" transform="translate(-316.636 -152.745)" fill="#315095"/>
      <path id="XMLID_56_" d="M380.271,396.4l-.9,17.388h-8.017L370.9,396.4Z" transform="translate(-316.261 -137.512)" fill="#f89888"/>
      <path id="XMLID_81_" d="M426.994,396.4l2.258,17.388h-8.468L418.3,396.4Z" transform="translate(-310.142 -137.512)" fill="#f89888"/>
      <path id="XMLID_47_" d="M381.681,397.1H370.5a.971.971,0,0,1-.9-.9V391.9a.971.971,0,0,1,.9-.9h11.178a.971.971,0,0,1,.9.9v4.291A.971.971,0,0,1,381.681,397.1Z" transform="translate(-316.429 -138.209)" fill="#72a4d5"/>
      <path id="XMLID_78_" d="M428.259,397.1h-11.4a.755.755,0,0,1-.79-.677L415.5,391.9a.873.873,0,0,1,.79-.9h11.4a.755.755,0,0,1,.79.677l.565,4.516A.745.745,0,0,1,428.259,397.1Z" transform="translate(-310.504 -138.209)" fill="#72a4d5"/>
      <path id="XMLID_46_" d="M364.322,211.191c-1.016,3.274-6.1,20.1-6.1,20.1s21.566-15.017,23.6-14.791l-5.533,19.759S345.8,252.29,340.5,249.354c-4.291-2.371-3.049-6.887,2.032-17.84,4.742-10.275,9.936-19.42,12.759-24.614Z" transform="translate(-320.522 -161.975)" fill="#ffe568"/>
      <path id="XMLID_430_" d="M381.706,215.4c-5.533,3.5-13.549,19.759-21.9,24.84-8.242,4.968-18.291,8.468-21,6.662a4.108,4.108,0,0,0,1.694,1.355c3.613,2.032,19.646-5.194,29.018-9.71Z" transform="translate(-320.405 -160.878)" fill="#fecb2f"/>
      <path id="XMLID_54_" d="M399.923,173.534a8.49,8.49,0,0,1,6.549.452c3.726,1.694,5.194,5.081,5.533,9.484.226,3.387,1.355,6.21,3.387,7.9,2.145,1.694,4.516,5.533,3.5,11.065a10.96,10.96,0,0,0,2.6,9.259s-6.323,7.9-25.517,7.9-31.953-5.645-31.953-5.645a7.471,7.471,0,0,0,0-5.645c-1.242-3.049-1.694-6.549.565-9.936s4.29-5.42,3.839-8.807-1.355-15.243,12.307-20.775C394.729,163.147,399.923,173.534,399.923,173.534Z" transform="translate(-317.283 -167.112)" fill="#242357"/>
      <path id="XMLID_43_" d="M399.7,198.4s-.9,11.63-.79,13.662c.113,2.145.677,3.049,3.161,3.726s6.775,3.613,6.775,3.613-6.775,18.4-26.082,19.533-2.484-22.13-2.484-22.13a34.389,34.389,0,0,0,4.968-1.468c1.016-.565,1.129-3.387,1.129-7Z" transform="translate(-315.928 -163.072)" fill="#f89888"/>
      <path id="XMLID_418_" d="M384.9,211.71h0c9.936,0,13.1-9.71,13.1-9.71h0c.113-2.032.226-3.5.226-3.5l-13.21,9.936A30.645,30.645,0,0,1,384.9,211.71Z" transform="translate(-314.454 -163.06)" fill="#cf6f70"/>
      <path id="XMLID_39_" d="M388.268,170.8c-6.549-.113-14.227,3.952-15.13,13.549-.9,9.033.113,17.5,1.807,20.888s5.081,6.775,7.113,7.113,13.21-.565,17.162-8.92a30.241,30.241,0,0,0,1.807-4.291,4.066,4.066,0,0,0,4.855-.339c2.371-2.032,3.952-7.339,2.6-9.71s-4.178-2.823-6.775-.565a18.092,18.092,0,0,0,.565-5.533C402.043,179.494,399.9,170.913,388.268,170.8Z" transform="translate(-316.016 -166.636)" fill="#f89888"/>
      <path id="XMLID_376_" d="M401.579,188.527a1.125,1.125,0,0,1,.113-.452c-.113-2.484-7.452-12.759-10.5-17.049a23.843,23.843,0,0,0-2.936-.226c-6.549-.113-14.227,3.952-15.13,13.549-.113.79-.113,1.581-.226,2.371,1.581.226,4.968.565,5.42.226.565-.452,3.161-9.823,3.161-9.823s.339,10.275.565,10.726,5.645,1.468,6.323,0a79.227,79.227,0,0,0,2.032-8.468,85.084,85.084,0,0,0,2.145,9.259C393.111,189.317,400.111,189.995,401.579,188.527Z" transform="translate(-316.003 -166.636)" fill="#cf6f70"/>
      <path id="XMLID_94_" d="M388.739,183.6h0a3.807,3.807,0,0,0-3.839,3.839v1.242a3.807,3.807,0,0,0,3.839,3.839h0a3.807,3.807,0,0,0,3.839-3.839v-1.242A3.807,3.807,0,0,0,388.739,183.6Z" transform="translate(-314.454 -164.983)" fill="url(#linear-gradient-3)"/>
      <path id="XMLID_366_" d="M376.639,183.2h0a3.807,3.807,0,0,0-3.839,3.839v1.242a3.807,3.807,0,0,0,3.839,3.839h0a3.807,3.807,0,0,0,3.839-3.839v-1.242A3.957,3.957,0,0,0,376.639,183.2Z" transform="translate(-316.016 -165.035)" fill="url(#linear-gradient-4)"/>
      <path id="XMLID_415_" d="M377.774,198.4c.339.677.677,1.468-.79,2.71-1.355,1.242-1.807,1.581-1.807,1.581a7.212,7.212,0,0,1-.677-1.355Z" transform="translate(-315.797 -163.072)" fill="#cf6f70"/>
      <path id="XMLID_38_" d="M382.014,189.2c.677-.226,1.355,7,.565,7.452-.79.339-3.839-.113-4.178-.677C378.176,195.185,381.337,189.426,382.014,189.2Z" transform="translate(-315.294 -164.261)" fill="#c46065"/>
      <circle id="XMLID_37_" cx="1.919" cy="1.919" r="1.919" transform="translate(72.365 23.585)" fill="#251836"/>
      <circle id="XMLID_36_" cx="1.919" cy="1.919" r="1.919" transform="translate(58.59 23.246)" fill="#251836"/>
      <path id="XMLID_53_" d="M403.1,189.784a1.8,1.8,0,0,0-2.258-1.581c-1.919.339-3.049,3.726-1.242,5.42" transform="translate(-312.673 -164.392)" fill="none" stroke="#cf6f70" stroke-linecap="round" stroke-miterlimit="10" stroke-width="1"/>
      <path id="XMLID_52_" d="M401.158,191.052a1.294,1.294,0,0,0-2.258-.9" transform="translate(-312.647 -164.192)" fill="none" stroke="#cf6f70" stroke-linecap="round" stroke-miterlimit="10" stroke-width="1"/>
      <path id="XMLID_40_" d="M385.2,213.839s-5.194,16.259-3.161,17.275S402.361,213.5,402.361,213.5s7.791,2.6,9.371,3.161c3.049,1.016,5.081,1.242,4.291,3.952-.9,3.613-.565,12.307-7.565,30.711-2.484,6.436-3.274,12.985-1.468,18.4,1.242,3.613,6.662,16.711,6.662,16.711s-23.146,17.953-45.39,1.581c0,0,1.468-30.034,4.065-36.244a12.775,12.775,0,0,1-6.549-7.226c-2.258-5.984,1.581-11.178,3.952-15.243,2.258-3.952,8.581-13.662,8.581-13.662Z" transform="translate(-317.011 -161.123)" fill="#ffe568"/>
      <path id="XMLID_443_" d="M370.129,254.5c-.452,3.387-.9,7.339-1.129,11.065,0,0,14.452.565,22.808,7.452a34.258,34.258,0,0,1,10.049,14,48.042,48.042,0,0,0,10.613-5.42C404.341,262.855,389.662,254.839,370.129,254.5Z" transform="translate(-316.507 -155.83)" fill="#35bdb3"/>
      <g id="XMLID_431_" transform="translate(79.479 63.981)">
        <g id="Group_7" data-name="Group 7">
          <path id="XMLID_161_" d="M392.9,292.678A46.652,46.652,0,0,0,410.062,285s-5.533-13.1-6.662-16.711c-1.807-5.307-.9-11.968,1.468-18.4a132.423,132.423,0,0,0,4.291-12.985c0-.113-3.274-7.791-1.807-13.1-.452-.339-1.694,2.71-1.581,6.549s-2.032,2.032-2.71,2.71,2.145,2.936.79,8.129c-1.242,5.194-6.1,13.323-4.968,22.921s4.742,15.694,5.081,17.84C404.191,283.984,399,290.871,392.9,292.678Z" transform="translate(-392.9 -223.777)" fill="#fecb2f"/>
        </g>
      </g>
      <g id="XMLID_49_" transform="translate(0 84.179)">
        <circle id="XMLID_35_" cx="11.855" cy="11.855" r="11.855" transform="matrix(0.887, -0.461, 0.461, 0.887, 8.107, 153.523)" fill="#5b9dd3"/>
        <path id="XMLID_480_" d="M348.43,389.892a10.647,10.647,0,0,0,4.516-14.34,8.46,8.46,0,0,0-1.694-2.258A11.838,11.838,0,0,0,333.3,383.57a13.773,13.773,0,0,0,.79,1.919A10.706,10.706,0,0,0,348.43,389.892Z" transform="translate(-321.116 -224.894)" fill="#68c7ea"/>
        <path id="XMLID_34_" d="M351.291,247.011A59.893,59.893,0,0,0,322.951,274a4.116,4.116,0,0,0,1.807,5.533l13.888,6.887a3.988,3.988,0,0,0,5.42-1.807,35.528,35.528,0,0,1,16.823-15.92,36.19,36.19,0,0,1,31.953,64.923,35.319,35.319,0,0,1-15.243,4.065,32.836,32.836,0,0,1-8.807-.79,16.253,16.253,0,0,0-18.969,11.4l-1.807,5.984-6.21,20.888a4.048,4.048,0,0,0,2.823,5.081l14.9,4.4a4.048,4.048,0,0,0,5.081-2.823l6.1-20.775a59.779,59.779,0,0,0,57.019-89.989C412.149,244.866,378.954,234.365,351.291,247.011Z" transform="translate(-322.508 -241.666)" fill="#68c7ea"/>
        <path id="XMLID_474_" d="M432.773,299.7c-1.242,7.339-10.5,33.082-31.276,42-12.307,5.307-26.308,5.871-33.647,5.645A6.55,6.55,0,0,0,361.3,352.2c-1.016,3.613-2.371,8.468-3.726,12.646-2.145,7.113-4.968,10.726-13.775,8.355l12.759,3.726a4.048,4.048,0,0,0,5.081-2.823l6.1-20.775a60.31,60.31,0,0,0,33.082-6.436A59,59,0,0,0,432.773,299.7Z" transform="translate(-319.76 -234.175)" fill="#5b9dd3"/>
        <path id="XMLID_475_" d="M368.34,242.1a62.265,62.265,0,0,0-17.049,4.855,59.893,59.893,0,0,0-28.34,26.985,4.116,4.116,0,0,0,1.807,5.533l11.855,5.871c-11.63-6.887-10.162-7.226-1.919-20.662C342.823,251.246,359.872,243.907,368.34,242.1Z" transform="translate(-322.508 -241.61)" fill="#84dff7"/>
        <path id="XMLID_478_" d="M376.908,330.368A28.764,28.764,0,0,0,398.022,318.4h0a35.9,35.9,0,0,1-7.565,5.194,35.321,35.321,0,0,1-15.243,4.065,32.837,32.837,0,0,1-8.807-.79,16.253,16.253,0,0,0-18.969,11.4l-1.807,5.984-5.533,18.63s4.178-10.614,7.452-18.969c3.161-8.355,5.645-11.4,10.613-13.21C363.021,328.9,365.053,331.272,376.908,330.368Z" transform="translate(-320.237 -231.761)" fill="#84dff7"/>
        <path id="XMLID_479_" d="M415.795,263.6l-11.856,5.081L389.6,265.632c.113,3.387,5.533,4.065,5.533,4.065l-1.807,2.936a7.607,7.607,0,0,0,.113,1.129,29.27,29.27,0,0,1,4.291,5.42h0c4.4.226,11.178-4.855,11.178-4.855a5.665,5.665,0,0,0,.9.677c1.807-1.016,8.468-7.452,8.581-7.565C417.489,266.084,416.7,264.729,415.795,263.6Z" transform="translate(-313.847 -238.835)" fill="#5b9dd3"/>
      </g>
      <path id="XMLID_42_" d="M405.471,264.4c-3.049,1.807-11.968,1.016-14.791.113-1.694-.565-.452,1.694.677,2.6A15.75,15.75,0,0,0,396.1,268.8c-.565.565-2.258,1.807-5.871,1.129-2.258-.677-3.161-1.919-4.4-2.484a5.258,5.258,0,0,0,.113,3.387,9.451,9.451,0,0,0,7.678,6.662c5.081.9,15.243-7.113,15.243-7.113Z" transform="translate(-314.363 -154.552)" fill="#f89888"/>
      <path id="XMLID_444_" d="M403.2,264.4a13.208,13.208,0,0,0,2.371,6.549l.9-.677Z" transform="translate(-312.092 -154.552)" fill="#cf6f70"/>
      <path id="XMLID_51_" d="M354.3,208.67s3.726-6.662,4.968-7.339c.677-.452,6.662-2.032,12.307-3.726a3.153,3.153,0,0,1,2.484,1.016,46.516,46.516,0,0,1,5.42-.339c1.242,0,1.355,1.129-1.581,2.823-2.823,1.581-10.162,6.436-13.775,6.549L361.3,212.17Z" transform="translate(-318.404 -163.18)" fill="#f89888"/>
      <path id="XMLID_50_" d="M398.992,173.4a13.8,13.8,0,0,0-13.323-5.081c-10.162,1.581-13.888,7.565-15.469,19.307,0,0,6.436.9,7.452,0s3.5-10.726,3.5-10.726-.113,9.936.452,10.726c.565.677,6.1,1.016,6.662,0,.677-1.016,1.242-9.484,1.242-9.484s.9,9.259,2.71,10.049,9.71.677,9.71.677,1.129-1.694.565-7C402.04,175.661,398.992,173.4,398.992,173.4Z" transform="translate(-316.352 -166.98)" fill="#2f256a"/>
      <path id="XMLID_367_" d="M398.6,186.758s-.677,6.323-1.242,6.323S396,184.5,396,184.5Z" transform="translate(-313.021 -164.867)" fill="#2f256a"/>
      <path id="XMLID_76_" d="M385.8,183.1c.79.79,2.71,1.016,3.726,1.242,2.371.565,3.726,1.468,3.839,3.274" transform="translate(-314.338 -165.048)" fill="none" stroke="#291d51" stroke-linecap="round" stroke-miterlimit="10" stroke-width="2"/>
      <path id="XMLID_358_" d="M379.284,183.718c-1.468-.565-5.194.339-5.984,3.274" transform="translate(-315.951 -164.988)" fill="none" stroke="#291d51" stroke-linecap="round" stroke-miterlimit="10" stroke-width="2"/>
      <path id="XMLID_414_" d="M372.416,198.552l-4.516.677,4.065-1.129Z" transform="translate(-316.649 -163.111)" fill="#cf6f70"/>
      <path id="XMLID_416_" d="M382.8,201.961c1.129-2.371,3.839-2.936,5.871-3.161" transform="translate(-314.725 -163.021)" fill="none" stroke="#cf6f70" stroke-linecap="round" stroke-miterlimit="10" stroke-width="1"/>
      <path id="XMLID_417_" d="M356.094,228.668s-1.242,4.629-1.694,5.758a23.882,23.882,0,0,0,3.839-7.226Z" transform="translate(-318.391 -159.355)" fill="#fecb2f"/>
      <path id="XMLID_433_" d="M368.639,205.3a8.6,8.6,0,0,1-4.968.339l-2.71,4.178-6.662-2.145,7.226,3.5,2.823-4.516A16.682,16.682,0,0,0,368.639,205.3Z" transform="translate(-318.404 -162.182)" fill="#cf6f70"/>
      <path id="XMLID_41_" d="M408.094,218.1c.79-1.581,3.613-1.919,8.129,6.775,4.065,7.791,16.485,31.84,15.807,34.889-.565,2.823-22.582,15.581-25.179,16.936a15.573,15.573,0,0,1-3.952-7.565l15.13-13.323s-9.823-16.033-10.952-19.308C406.174,233.231,404.142,225.891,408.094,218.1Z" transform="translate(-312.13 -160.643)" fill="#ffe568"/>
      <path id="XMLID_438_" d="M370.9,396.4h9.371l-.113,1.355C380.159,397.642,373.836,397.755,370.9,396.4Z" transform="translate(-316.261 -137.512)" fill="#cf6f70"/>
      <path id="XMLID_355_" d="M418.3,396.4h8.694s-1.468.9-8.581,1.355Z" transform="translate(-310.142 -137.512)" fill="#cf6f70"/>
      <path id="XMLID_462_" d="M385.6,268.819a6.567,6.567,0,0,0,4.742,1.468c3.049-.226,4.629-.9,5.758-2.032-.565.565-2.258,1.807-5.871,1.129-2.258-.677-3.161-1.919-4.4-2.484A7.685,7.685,0,0,0,385.6,268.819Z" transform="translate(-314.364 -154.23)" fill="#cf6f70"/>
      <path id="XMLID_458_" d="M430.482,255.791c-1.016,1.129-17.84,11.4-21,12.759-3.161,1.242-5.081.452-5.081.452a13.51,13.51,0,0,0,2.484,3.387c2.484-1.242,24.614-14,25.179-16.936a9.62,9.62,0,0,0-1.016-3.952C430.934,251.5,431.611,254.436,430.482,255.791Z" transform="translate(-311.937 -156.218)" fill="#fecb2f"/>
      <path id="XMLID_446_" d="M416.565,251.7a8.4,8.4,0,0,1,3.839-1.694s-2.71-.452-4.4.677Z" transform="translate(-310.439 -156.421)" fill="#fecb2f"/>
      <g id="XMLID_80_" transform="translate(105.787 265.774)">
        <path id="XMLID_466_" d="M419.019,404.871c1.242,0,2.936,5.081,4.291,5.081s4.855-7.339,6.323-7.452,3.049,5.194,4.968,7,13.436,5.42,15.807,5.984S453.8,417.4,453.8,420H416.309a13.014,13.014,0,0,1,.79-6.1C418.342,410.743,417.777,404.871,419.019,404.871Z" transform="translate(-416.196 -402.498)" fill="#2f256a"/>
        <path id="XMLID_463_" d="M453.573,416.3H416.2v1.807h37.6A9.874,9.874,0,0,0,453.573,416.3Z" transform="translate(-416.2 -400.717)" fill="#fff"/>
        <path id="XMLID_447_" d="M419.926,417.823a26.32,26.32,0,0,1,.452-5.758,24.013,24.013,0,0,0,.79-4.968c-.79-1.242-1.468-2.6-2.145-2.6-1.242,0-.677,5.871-1.919,9.033a13.907,13.907,0,0,0-.9,4.29Z" transform="translate(-416.2 -402.24)" fill="#291d51"/>
        <path id="XMLID_445_" d="M453.8,418H416.2v-.9h37.6Z" transform="translate(-416.2 -400.613)" fill="#e6eff4"/>
      </g>
      <g id="XMLID_471_" transform="translate(29.686 265.774)">
        <path id="XMLID_477_" d="M383.576,404.871c-1.242,0-2.936,5.081-4.291,5.081s-4.855-7.339-6.323-7.452-3.049,5.194-4.968,7-13.436,5.42-15.807,5.984S348.8,417.4,348.8,420h37.486a13.014,13.014,0,0,0-.79-6.1C384.254,410.743,384.818,404.871,383.576,404.871Z" transform="translate(-348.8 -402.498)" fill="#2f256a"/>
        <path id="XMLID_476_" d="M349.026,416.3H386.4v1.807H348.8A9.882,9.882,0,0,1,349.026,416.3Z" transform="translate(-348.8 -400.717)" fill="#fff"/>
        <path id="XMLID_473_" d="M378.942,417.823a26.321,26.321,0,0,0-.452-5.758,24.011,24.011,0,0,1-.79-4.968c.79-1.242,1.468-2.6,2.145-2.6,1.242,0,.677,5.871,1.919,9.033a13.908,13.908,0,0,1,.9,4.29Z" transform="translate(-345.069 -402.24)" fill="#291d51"/>
        <path id="XMLID_472_" d="M348.8,418h37.6v-.9H348.8Z" transform="translate(-348.8 -400.613)" fill="#e6eff4"/>
      </g>
    </g>
    <g id="XMLID_286_" transform="translate(172.752 275.2)">
      <path id="XMLID_74_" d="M230.9,384.953s54.309-26.872,61.648-29.018c2.6-.79,7.452-.677,11.855,7.791C314.453,382.582,334.438,416,334.438,416h-9.484l-29.582-38.389L237,416Z" transform="translate(-146.894 -237.958)" fill="#f89888"/>
      <path id="XMLID_33_" d="M277.161,367.7l1.016,2.71-17.84,28.227s-23.372,16.711-23.937,15.694C235.836,413.541,277.161,367.7,277.161,367.7Z" transform="translate(-146.185 -236.399)" fill="#cf6f70"/>
      <path id="XMLID_67_" d="M196.644,398.042c-.9,2.71-3.387,10.162-1.355,16.6,2.032,6.549,8.694,12.42,17.953,12.42h17.5c4.065,0,13.549-4.178,23.034-17.5s28.792-39.292,28.792-39.292l17.162,47.986h7.791s-11.743-55.664-13.775-63.229c-2.823-10.275-9.484-11.178-21.792-.226-9.936,8.807-36.357,31.276-36.357,31.276s-8.581,12.42-24.727,4.742Z" transform="translate(-151.592 -239.078)" fill="#f89888"/>
      <path id="XMLID_70_" d="M235.628,382.387l8.017-6.887s13.662,12.42,17.727,22.582c0,0-16.033,25.179-30.711,25.179h-17.5c-7.9,0-15.243-4.4-17.953-12.42s1.355-16.6,1.355-16.6l14.452-10.049Z" transform="translate(-151.622 -235.392)" fill="#3e65ae"/>
      <path id="XMLID_368_" d="M210.994,383.429l-14.452,10.049a19.323,19.323,0,0,0-1.242,3.613c9.484,0,16.146-7,16.146-7,8.581,4.065,14.339-.9,14.339-.9V382.3Z" transform="translate(-151.49 -234.514)" fill="#315095"/>
      <path id="XMLID_87_" d="M204.8,332.953c1.242-.565,5.871.452,19.759,3.049,15.469,2.823,18.743,2.823,18.743,2.823s33.76-31.163,35.115-30.824c2.371.565,3.387,6.323,3.387,6.323s-29.808,38.163-34.1,38.841c-2.032.339-32.518-1.129-32.518-1.129Z" transform="translate(-150.263 -244.106)" fill="#f89888"/>
      <path id="XMLID_360_" d="M238.913,350.414a25.245,25.245,0,0,0,4.4,0c2.258-.339,11.517-11.065,19.759-21.114-.113.113-18.743,18.291-19.646,18.743s-3.161,0-3.161,0L238.8,336.075l.113,14.339Z" transform="translate(-145.874 -241.356)" fill="#cf6f70"/>
      <path id="XMLID_88_" d="M202.6,329.792l.113-.79a47.329,47.329,0,0,1,5.871.79c4.855.9,33.534,5.758,33.534,5.758v15.13l-26.647-1.355Z" transform="translate(-150.547 -241.396)" fill="#fe677a"/>
      <path id="XMLID_353_" d="M226.424,341.043c-2.6-2.823-11.178-7.565-16.033-9.823a18.487,18.487,0,0,0-7.678-1.919l-.113.452,12.872,19.533,26.647,1.468-12.533-2.71A13.4,13.4,0,0,0,226.424,341.043Z" transform="translate(-150.547 -241.356)" fill="#cd437e"/>
      <path id="XMLID_77_" d="M239.052,350.551H232.39a.772.772,0,0,1-.79-.79V334.292a.8.8,0,0,1,.9-.79l6.662.677c.452,0,.677.339.677.79v14.791A.772.772,0,0,1,239.052,350.551Z" transform="translate(-146.804 -240.816)" fill="#fcb4c4"/>
      <path id="XMLID_72_" d="M206.764,287.558a13.255,13.255,0,0,0-11.517-2.823c-7.9,1.694-10.5,6.887-11.743,13.436-1.242,6.436-4.516,9.71-5.194,16.146-.677,6.323,2.258,18.066,13.662,19.646l3.161-13.1Z" transform="translate(-153.695 -247.148)" fill="#2f256a"/>
      <path id="XMLID_71_" d="M200.2,285.635s3.5-4.291,11.291-2.484c5.307,1.242,11.4,5.194,10.839,12.533s.226,8.92,1.242,12.533-.677,11.178-6.662,13.888l-13.662-32.292A5.582,5.582,0,0,0,200.2,285.635Z" transform="translate(-150.857 -247.371)" fill="#242357"/>
      <path id="XMLID_55_" d="M192.881,315l-2.032,14.9-3.049,2.6s7.339,10.726,12.872,12.872c5.645,2.145,13.21.79,13.888-.452,2.258-4.291-5.645-12.194-5.645-12.194l-4.4-1.355,1.468-7.452Z" transform="translate(-152.458 -243.202)" fill="#f89888"/>
      <path id="XMLID_32_" d="M192.339,315,192,317.371a14.738,14.738,0,0,0,5.533,7,15.23,15.23,0,0,0,7.452,2.6l.565-2.823Z" transform="translate(-151.916 -243.202)" fill="#cf6f70"/>
      <path id="XMLID_58_" d="M201.844,289.345c6.436-1.242,13.323.113,16.146,9.259a53.909,53.909,0,0,1,2.145,20.775c-.339,3.726-1.355,6.887-3.274,7.565s-15.356,2.6-20.888-4.742a44.48,44.48,0,0,1-2.6-3.839,4.066,4.066,0,0,1-4.855.565c-2.71-1.581-5.194-6.436-4.4-9.033.9-2.6,3.5-3.5,6.549-1.807a19.007,19.007,0,0,1-1.581-5.307C188.52,299.394,190.327,291.6,201.844,289.345Z" transform="translate(-152.953 -246.564)" fill="#f89888"/>
      <path id="XMLID_404_" d="M216.416,304.643a48.1,48.1,0,0,0-1.694-7,3.867,3.867,0,0,0-2.032-.339h0a3.837,3.837,0,0,0-3.387,4.291l.113,1.129a3.837,3.837,0,0,0,4.291,3.387A3.326,3.326,0,0,0,216.416,304.643Z" transform="translate(-149.685 -245.49)" fill="url(#linear-gradient-5)"/>
      <path id="XMLID_357_" d="M201.79,298.7h0a3.837,3.837,0,0,0-3.387,4.291l.113,1.129a3.837,3.837,0,0,0,4.291,3.387h0a3.837,3.837,0,0,0,3.387-4.291l-.113-1.129A3.918,3.918,0,0,0,201.79,298.7Z" transform="translate(-151.092 -245.308)" fill="url(#linear-gradient-6)"/>
      <path id="XMLID_370_" d="M204.191,289s2.823,6.436-.339,12.759c-3.161,6.21-10.952,6.323-10.952,6.323Z" transform="translate(-151.8 -246.558)" fill="#cf6f70"/>
      <path id="XMLID_63_" d="M208.668,304.7c-.79.565-.79,7.113,0,7.565.79.339,4.629-.79,4.629-1.468C213.636,309.107,209.345,304.252,208.668,304.7Z" transform="translate(-149.841 -244.535)" fill="#c46065"/>
      <circle id="XMLID_61_" cx="1.919" cy="1.919" r="1.919" transform="translate(61.315 57.301) rotate(-10.859)" fill="#251836"/>
      <circle id="XMLID_62_" cx="1.919" cy="1.919" r="1.919" transform="translate(49.798 58.664) rotate(-10.859)" fill="#251836"/>
      <path id="XMLID_60_" d="M186.305,310.019c-.226-.452.339-1.919,1.919-1.919,1.919,0,3.726,3.161,2.258,5.194" transform="translate(-152.657 -244.093)" fill="none" stroke="#cf6f70" stroke-linecap="round" stroke-miterlimit="10" stroke-width="1"/>
      <path id="XMLID_59_" d="M188.306,310.884a1.309,1.309,0,0,1,2.032-1.355" transform="translate(-152.4 -243.941)" fill="none" stroke="#cf6f70" stroke-linecap="round" stroke-miterlimit="10" stroke-width="1"/>
      <path id="XMLID_64_" d="M192.021,328.3s-1.355-.113-6.887,2.71c-5.645,2.936-7,3.5-6.21,7.113.565,2.823,4.178,18.517,13.775,31.953a137.026,137.026,0,0,0,10.275,12.194c1.129,1.355,1.355,3.274-.79,7.452s-4.742,10.952-4.742,10.952,6.887-1.694,10.275-3.5a21.936,21.936,0,0,0,5.194-3.952,14.259,14.259,0,0,0,11.178,3.726c10.049-1.242,13.549-8.468,13.549-8.468a76.523,76.523,0,0,0-4.178-14.452c-2.936-7.113-5.42-11.517-5.194-13.549s4.4-10.952.677-16.711c-3.839-5.758-15.581-12.081-17.614-12.759a14.966,14.966,0,0,0-4.629-.79s11.517,9.259,7,12.985c-1.355,1.129-5.194,2.032-9.823-1.468C199.021,338.349,196.537,332.816,192.021,328.3Z" transform="translate(-153.63 -241.485)" fill="#fe677a"/>
      <path id="XMLID_351_" d="M192.387,350.556c-.226-4.065-3.161-8.694-3.161-8.92a62.354,62.354,0,0,1,1.468,10.388c.226,5.758-1.694,14.452-1.694,14.565.79,1.242,1.581,2.371,2.371,3.5a137.03,137.03,0,0,0,10.275,12.194c1.129,1.355,1.355,3.274-.79,7.452s-4.742,10.952-4.742,10.952,2.823-.677,5.758-1.694c-.226-3.613,1.807-9.259,2.6-11.856,1.129-3.387,1.694-3.726,0-5.645a52.484,52.484,0,0,1-5.984-9.371c-2.371-4.4-3.387-8.694-2.371-12.307s4.178-13.1,2.936-21.34h0c-2.823-3.161-5.081-7-8.355-10.275C196.678,335.991,192.387,350.556,192.387,350.556Z" transform="translate(-152.303 -241.498)" fill="#cd437e"/>
      <path id="XMLID_66_" d="M181.949,333.515c-1.919-.339-3.952-.79-4.4,9.6-.339,8.581-2.145,39.518-2.145,39.518h12.307s3.613-19.646,4.291-24.953C193.578,345.6,191.772,335.547,181.949,333.515Z" transform="translate(-154.059 -240.828)" fill="#fe677a"/>
      <path id="XMLID_68_" d="M177.84,379.977s-1.694,32.97-1.807,35.566-6.775,3.5-12.533,4.065-7.9,2.145-6.662,3.274h24.727c2.145,0,2.258-1.242,2.823-6.549.565-5.194,4.629-37.034,4.629-37.034Z" transform="translate(-156.499 -234.901)" fill="#f89888"/>
      <path id="XMLID_354_" d="M175.213,383.913l-.113,1.919s6.436.339,10.726-1.016l.113-1.016H175.213Z" transform="translate(-154.097 -234.32)" fill="#cf6f70"/>
      <path id="XMLID_69_" d="M190.253,308.324a13.471,13.471,0,0,0,12.307-5.871c4.629-6.887,1.919-14.452,1.919-14.452a12.794,12.794,0,0,0-13.662,2.823C184.269,296.92,188.107,306.969,190.253,308.324Z" transform="translate(-152.54 -246.801)" fill="#2f256a"/>
      <path id="XMLID_73_" d="M190.5,326.3s6.887.677,10.839,4.742,7.678,10.388,5.758,18.743-2.71,12.194-.452,14.34,5.42,0,5.42,0-2.823,6.662-11.4,4.065c-6.323-1.807-8.694-7.9-6.549-17.275s2.032-15.356-3.613-22.356Z" transform="translate(-152.109 -241.743)" fill="#2f256a"/>
      <path id="XMLID_84_" d="M203.6,315.5s3.839-.226,5.984,2.032" transform="translate(-150.418 -243.138)" fill="none" stroke="#cf6f70" stroke-linecap="round" stroke-miterlimit="10" stroke-width="1"/>
      <path id="XMLID_65_" d="M187.462,384.778H174.59a.873.873,0,0,1-.79-.9l.339-5.984a.772.772,0,0,1,.79-.79h13.21a.8.8,0,0,1,.79.9l-.79,5.984A.635.635,0,0,1,187.462,384.778Z" transform="translate(-154.265 -235.185)" fill="#fcb4c4"/>
      <path id="XMLID_230_" d="M270.5,370.829l6.887,13.888,1.129-.79c-2.371-6.436-5.194-13.888-4.742-17.727Z" transform="translate(-141.782 -236.592)" fill="#cf6f70"/>
      <path id="XMLID_31_" d="M288.018,375.849a11.844,11.844,0,0,1,.79-6.549s1.694,5.533,7.452,13.662,23.259,31.276,23.259,31.276h-2.032Z" transform="translate(-139.541 -236.192)" fill="#cf6f70"/>
      <g id="XMLID_386_" transform="translate(171.285 170.592)">
        <path id="XMLID_400_" d="M311.019,404.871c1.242,0,2.936,5.081,4.291,5.081s4.855-7.339,6.323-7.452,3.049,5.194,4.968,7,13.436,5.42,15.807,5.984S345.8,417.4,345.8,420H308.309a13.014,13.014,0,0,1,.79-6.1C310.342,410.743,309.777,404.871,311.019,404.871Z" transform="translate(-308.196 -402.498)" fill="#2f256a"/>
        <path id="XMLID_398_" d="M345.573,416.3H308.2v1.807h37.6A4.971,4.971,0,0,0,345.573,416.3Z" transform="translate(-308.2 -400.717)" fill="#fff"/>
        <path id="XMLID_392_" d="M311.926,417.823a26.321,26.321,0,0,1,.452-5.758,24.011,24.011,0,0,0,.79-4.968c-.79-1.242-1.468-2.6-2.145-2.6-1.242,0-.677,5.871-1.919,9.033a13.909,13.909,0,0,0-.9,4.29Z" transform="translate(-308.2 -402.24)" fill="#291d51"/>
        <path id="XMLID_388_" d="M345.8,418H308.2v-.9h37.6Z" transform="translate(-308.2 -400.613)" fill="#e6eff4"/>
      </g>
      <path id="XMLID_383_" d="M230.321,421.373c14.678,0,30.711-25.179,30.711-25.179a28.625,28.625,0,0,0-2.71-5.194s-13.775,18.291-18.856,22.017-15.469,4.178-24.614,4.178-14.339,0-17.953-4.178a18.8,18.8,0,0,0,16.033,8.468C220.837,421.373,215.643,421.373,230.321,421.373Z" transform="translate(-151.283 -233.391)" fill="#315095"/>
      <g id="XMLID_348_" transform="translate(142.493 170.592)">
        <path id="XMLID_45_" d="M285.519,404.871c1.242,0,2.936,5.081,4.291,5.081s4.855-7.339,6.323-7.452,3.049,5.194,4.968,7,13.436,5.42,15.807,5.984S320.3,417.4,320.3,420H282.809a13.014,13.014,0,0,1,.79-6.1C284.842,410.743,284.277,404.871,285.519,404.871Z" transform="translate(-282.696 -402.498)" fill="#2f256a"/>
        <path id="XMLID_44_" d="M320.073,416.3H282.7v1.807h37.6A9.884,9.884,0,0,0,320.073,416.3Z" transform="translate(-282.7 -400.717)" fill="#fff"/>
        <path id="XMLID_390_" d="M286.426,417.823a26.322,26.322,0,0,1,.452-5.758,24.009,24.009,0,0,0,.79-4.968c-.79-1.242-1.468-2.6-2.145-2.6-1.242,0-.677,5.871-1.919,9.033a13.908,13.908,0,0,0-.9,4.29Z" transform="translate(-282.7 -402.24)" fill="#291d51"/>
        <path id="XMLID_30_" d="M320.3,418H282.7v-.9h37.6Z" transform="translate(-282.7 -400.613)" fill="#e6eff4"/>
      </g>
      <path id="XMLID_83_" d="M205.4,297.2c-.565.9-2.371,1.242-3.726,1.355a4.225,4.225,0,0,0-3.274,2.032" transform="translate(-151.09 -245.5)" fill="none" stroke="#291d51" stroke-linecap="round" stroke-miterlimit="10" stroke-width="2"/>
      <path id="XMLID_82_" d="M210.2,298.139a5.761,5.761,0,0,1,3.5-.113,5.62,5.62,0,0,1,2.71,1.807" transform="translate(-149.566 -245.422)" fill="none" stroke="#291d51" stroke-linecap="round" stroke-miterlimit="10" stroke-width="2"/>
      <path id="XMLID_75_" d="M189.9,305.99a25.345,25.345,0,0,1,2.371,4.629c.565,2.032,2.6-.9.79-5.42Z" transform="translate(-152.187 -244.467)" fill="#2f256a"/>
      <g id="XMLID_48_" transform="translate(111.56)">
        <g id="XMLID_290_" transform="translate(0 0.05)">
          <path id="XMLID_86_" d="M271.333,255.006a34.793,34.793,0,0,0-15.807,15.92,2.439,2.439,0,0,0,1.129,3.161l8.129,3.726a2.309,2.309,0,0,0,3.049-1.129,20.724,20.724,0,1,1,20.1,29.7,25.542,25.542,0,0,1-5.081-.226,9.218,9.218,0,0,0-10.613,6.887l-.9,3.5-4.178,16.146a2.326,2.326,0,0,0,1.694,2.823l8.581,2.258a2.326,2.326,0,0,0,2.823-1.694l4.178-16.033a35.306,35.306,0,0,0,18.856-4.291,34.331,34.331,0,0,0-31.953-60.745Z" transform="translate(-255.304 -251.455)" fill="#68c7ea"/>
          <circle id="XMLID_85_" cx="6.775" cy="6.775" r="6.775" transform="translate(5.237 95.294) rotate(-29.282)" fill="#5b9dd3"/>
          <path id="XMLID_412_" d="M270.894,342.25a5.912,5.912,0,0,0,2.258-8.017,6.261,6.261,0,0,0-.677-.9A6.723,6.723,0,0,0,262.2,337.62a8.214,8.214,0,0,0,.677,2.371A5.912,5.912,0,0,0,270.894,342.25Z" transform="translate(-254.414 -241.032)" fill="#68c7ea"/>
        </g>
        <path id="XMLID_359_" d="M278.83,332.442l4.178-16.033a35.307,35.307,0,0,0,18.856-4.291A34.32,34.32,0,0,0,319.251,279.6c-.339,8.694-3.952,18.291-14.678,26.082a34.186,34.186,0,0,1-23.146,6.436,2.954,2.954,0,0,0-3.161,2.258c-1.016,4.291-3.049,12.759-3.387,14.678-.452,2.6-1.694,4.178-7.678,2.823l8.581,2.258A2.512,2.512,0,0,0,278.83,332.442Z" transform="translate(-253.768 -247.772)" fill="#5b9dd3"/>
        <path id="XMLID_362_" d="M265.01,261.448c8.017-9.146,23.259-9.936,28.792-9.259a34.322,34.322,0,0,0-38.276,18.63,2.439,2.439,0,0,0,1.129,3.161l8.129,3.726s-3.952-2.936-5.194-4.178C258.235,272.4,256.993,270.706,265.01,261.448Z" transform="translate(-255.304 -251.411)" fill="#84dff7"/>
        <path id="XMLID_405_" d="M294.3,298.3a21.13,21.13,0,0,1-7.791,2.145,25.542,25.542,0,0,1-5.081-.226,9.218,9.218,0,0,0-10.613,6.887l-.9,3.5L266.3,324.495c1.016-2.936,3.387-9.6,4.742-13.436,1.694-4.968,3.049-9.823,9.936-9.259,6.887.339,10.839-1.355,13.323-3.5Z" transform="translate(-253.884 -245.358)" fill="#84dff7"/>
      </g>
    </g>
    <g id="XMLID_79_" transform="translate(456.295 114.287)">
      <g id="XMLID_491_" transform="translate(0)">
        <path id="XMLID_494_" d="M420.13,111.272a26.688,26.688,0,0,0-12.307,11.855,1.726,1.726,0,0,0,.79,2.371l6.1,3.049a1.726,1.726,0,0,0,2.371-.79,16.349,16.349,0,0,1,7.339-7,15.783,15.783,0,1,1,7.452,30.034,10.851,10.851,0,0,1-3.839-.339,7.072,7.072,0,0,0-8.242,5.081l-.79,2.6-1.919,6.549a1.881,1.881,0,0,0,1.242,2.258l6.549,1.919a1.882,1.882,0,0,0,2.258-1.242l1.919-6.436a25.352,25.352,0,0,0,14.452-2.936,26.1,26.1,0,0,0,10.162-36.583A26.429,26.429,0,0,0,420.13,111.272Z" transform="translate(-407.624 -108.896)" fill="#68c7ea"/>
        <circle id="XMLID_493_" cx="5.194" cy="5.194" r="5.194" transform="translate(4.009 66.494) rotate(-27.841)" fill="#5b9dd3"/>
        <path id="XMLID_492_" d="M419.549,172.778a4.583,4.583,0,0,0,1.919-6.1c-.113-.226-.339-.452-.452-.677a5.454,5.454,0,0,0-5.42-.339,5.211,5.211,0,0,0-2.6,3.387,3.412,3.412,0,0,0,.565,1.807A4.242,4.242,0,0,0,419.549,172.778Z" transform="translate(-406.93 -101.641)" fill="#68c7ea"/>
      </g>
      <path id="XMLID_490_" d="M425.794,164.773l1.919-6.436a25.352,25.352,0,0,0,14.452-2.936,26.191,26.191,0,0,0,13.888-24.5c-.339,6.549-3.387,13.775-11.63,19.646a26.2,26.2,0,0,1-17.727,4.516,2.323,2.323,0,0,0-2.484,1.694c-.9,3.274-.9,3.952-1.242,5.42-.339,1.919-1.355,3.161-5.871,2.032l6.549,1.919A2.066,2.066,0,0,0,425.794,164.773Z" transform="translate(-406.4 -106.056)" fill="#5b9dd3"/>
      <path id="XMLID_489_" d="M415.162,116.121c6.323-6.887,17.84-7.113,22.13-6.436a25.939,25.939,0,0,0-17.162,1.694,26.688,26.688,0,0,0-12.307,11.855,1.726,1.726,0,0,0,.79,2.371l6.1,3.049a43.609,43.609,0,0,1-3.839-3.274C409.855,124.25,408.839,123.008,415.162,116.121Z" transform="translate(-407.624 -108.891)" fill="#84dff7"/>
      <path id="XMLID_488_" d="M436.611,144.8a16.075,16.075,0,0,1-5.984,1.468,10.851,10.851,0,0,1-3.839-.339,7.072,7.072,0,0,0-8.242,5.081l-.79,2.6-1.355,4.855c.9-2.258,1.242-1.581,2.258-4.516,1.355-3.726,2.484-7.452,7.791-6.887,5.194.565,8.242-.79,10.162-2.258Z" transform="translate(-406.491 -104.261)" fill="#84dff7"/>
    </g>
    <g id="XMLID_549_" transform="translate(158.214 67.134)">
      <g id="XMLID_553_">
        <path id="XMLID_556_" d="M156.13,69.58a26.688,26.688,0,0,0-12.307,11.855,1.726,1.726,0,0,0,.79,2.371l6.1,3.049a1.726,1.726,0,0,0,2.371-.79,16.349,16.349,0,0,1,7.339-7,15.783,15.783,0,1,1,7.452,30.034,10.85,10.85,0,0,1-3.839-.339,7.072,7.072,0,0,0-8.242,5.081l-.79,2.6-1.919,6.549a1.882,1.882,0,0,0,1.242,2.258l6.549,1.919a1.882,1.882,0,0,0,2.258-1.242l1.919-6.436A25.352,25.352,0,0,0,179.5,116.55,26.241,26.241,0,0,0,156.13,69.58Z" transform="translate(-143.624 -67.134)" fill="#68c7ea"/>
        <circle id="XMLID_555_" cx="5.194" cy="5.194" r="5.194" transform="translate(4.042 66.468) rotate(-27.839)" fill="#5b9dd3"/>
        <path id="XMLID_554_" d="M155.549,130.978a4.583,4.583,0,0,0,1.919-6.1c-.113-.226-.339-.452-.452-.677a5.454,5.454,0,0,0-5.42-.339,5.211,5.211,0,0,0-2.6,3.387,3.412,3.412,0,0,0,.565,1.807A4.3,4.3,0,0,0,155.549,130.978Z" transform="translate(-142.93 -59.884)" fill="#68c7ea"/>
      </g>
      <path id="XMLID_552_" d="M161.794,122.973l1.919-6.436a25.352,25.352,0,0,0,14.452-2.936,26.191,26.191,0,0,0,13.888-24.5c-.339,6.549-3.387,13.775-11.63,19.646a26.2,26.2,0,0,1-17.727,4.516,2.323,2.323,0,0,0-2.484,1.694c-.9,3.274-.9,3.952-1.242,5.42-.339,1.919-1.355,3.161-5.871,2.032l6.549,1.919A1.987,1.987,0,0,0,161.794,122.973Z" transform="translate(-142.4 -64.299)" fill="#5b9dd3"/>
      <path id="XMLID_551_" d="M151.162,74.321c6.323-6.887,17.84-7.113,22.13-6.436a25.939,25.939,0,0,0-17.162,1.694,26.688,26.688,0,0,0-12.307,11.855,1.726,1.726,0,0,0,.79,2.371l6.1,3.049a43.6,43.6,0,0,1-3.839-3.274C145.855,82.45,144.952,81.208,151.162,74.321Z" transform="translate(-143.624 -67.134)" fill="#84dff7"/>
      <path id="XMLID_550_" d="M172.611,103a16.076,16.076,0,0,1-5.984,1.468,10.85,10.85,0,0,1-3.839-.339,7.072,7.072,0,0,0-8.242,5.081l-.79,2.6-1.355,4.855c.9-2.258,1.242-1.581,2.258-4.516,1.355-3.726,2.484-7.452,7.791-6.887,5.194.565,8.242-.677,10.162-2.258Z" transform="translate(-142.491 -62.504)" fill="#84dff7"/>
    </g>
    <g id="XMLID_95_" transform="translate(31.744 128.867)">
      <g id="XMLID_558_">
        <path id="XMLID_561_" d="M34.082,136.816a26.374,26.374,0,0,0-1.807,17.049,1.784,1.784,0,0,0,2.145,1.355l6.549-1.581a1.986,1.986,0,0,0,1.355-2.145,15.552,15.552,0,0,1,1.016-10.049,15.809,15.809,0,0,1,29.018,12.533,14.581,14.581,0,0,1-3.952,5.645,14.8,14.8,0,0,1-3.161,2.258,7.025,7.025,0,0,0-3.049,9.146l1.129,2.484,2.71,6.21a1.771,1.771,0,0,0,2.371.9l6.21-2.823a1.771,1.771,0,0,0,.9-2.371l-2.71-6.1a25.776,25.776,0,0,0,9.146-11.517,26.149,26.149,0,0,0-47.874-21Z" transform="translate(-31.613 -121.809)" fill="#68c7ea"/>
        <circle id="XMLID_560_" cx="5.194" cy="5.194" r="5.194" transform="translate(37.294 69.431) rotate(-67.952)" fill="#5b9dd3"/>
        <path id="XMLID_559_" d="M74.006,182.3a4.584,4.584,0,0,0-2.484-5.871,2.093,2.093,0,0,0-.79-.226,5.239,5.239,0,0,0-4.291,3.161,5.145,5.145,0,0,0,.226,4.291,8.015,8.015,0,0,0,1.581,1.129A4.5,4.5,0,0,0,74.006,182.3Z" transform="translate(-27.164 -114.787)" fill="#68c7ea"/>
      </g>
      <path id="XMLID_557_" d="M71.4,174.477l-2.71-6.1a25.776,25.776,0,0,0,9.146-11.517A26.256,26.256,0,0,0,72.755,129.2c3.952,5.307,6.323,12.759,3.726,22.469A25.667,25.667,0,0,1,65.755,166.46a2.313,2.313,0,0,0-.79,2.823,53.55,53.55,0,0,0,2.6,4.968c1.016,1.807,1.016,3.274-3.161,5.307l6.21-2.823A1.756,1.756,0,0,0,71.4,174.477Z" transform="translate(-27.381 -120.854)" fill="#5b9dd3"/>
      <path id="XMLID_548_" d="M33.4,143.395c.452-9.259,9.033-16.936,12.759-19.195a26.087,26.087,0,0,0-12.081,12.307,26.374,26.374,0,0,0-1.807,17.049,1.784,1.784,0,0,0,2.145,1.355l6.549-1.581s-3.726.113-5.081,0C34.534,153.1,32.953,152.653,33.4,143.395Z" transform="translate(-31.613 -121.5)" fill="#84dff7"/>
      <path id="XMLID_287_" d="M68.7,150.8a16.094,16.094,0,0,1-3.613,4.968,14.8,14.8,0,0,1-3.161,2.258,7.025,7.025,0,0,0-3.049,9.146L60,169.656l2.032,4.629c-.79-2.258-.113-2.032-1.129-4.855-1.355-3.726-2.823-7.339,1.468-10.275s5.871-5.871,6.323-8.355Z" transform="translate(-28.179 -118.066)" fill="#84dff7"/>
    </g>
    <g id="XMLID_57_" transform="translate(271.543 81.694)">
      <g id="XMLID_524_" transform="translate(0.113)">
        <path id="XMLID_527_" d="M253.924,104.159a55.689,55.689,0,0,0-9.71,35.115,3.717,3.717,0,0,0,4.065,3.5l14.452-1.129a3.792,3.792,0,0,0,3.5-4.065,33.487,33.487,0,0,1,5.758-20.775,33.66,33.66,0,0,1,56.568,36.47,33.517,33.517,0,0,1-17.727,14.114,15.28,15.28,0,0,0-9.71,18.178l1.468,5.645,3.613,14a3.775,3.775,0,0,0,4.629,2.71l14-3.613a3.775,3.775,0,0,0,2.71-4.629l-3.613-13.888a54.72,54.72,0,0,0,23.259-21,55.637,55.637,0,0,0-93.263-60.632Z" transform="translate(-244.095 -80.03)" fill="#68c7ea"/>
        <circle id="XMLID_526_" cx="11.065" cy="11.065" r="11.065" transform="translate(63.831 150.684) rotate(-58.473)" fill="#5b9dd3"/>
        <path id="XMLID_525_" d="M321,214.505a9.578,9.578,0,0,0-3.161-13.21,11.4,11.4,0,0,0-1.694-.79,10.813,10.813,0,0,0-10.162,5.194,11.144,11.144,0,0,0-1.129,9.033,8.777,8.777,0,0,0,2.936,2.823A9.45,9.45,0,0,0,321,214.505Z" transform="translate(-236.314 -64.482)" fill="#68c7ea"/>
      </g>
      <path id="XMLID_523_" d="M320.023,196.931l-3.613-13.888a54.72,54.72,0,0,0,23.259-21,55.868,55.868,0,0,0-1.016-59.842c6.436,12.533,8.92,28.9-.113,48.551a55.413,55.413,0,0,1-27.663,27.437,4.9,4.9,0,0,0-2.71,5.758,115.314,115.314,0,0,0,3.613,11.291c1.468,4.065.9,7.226-8.581,10.049l14-3.613A4.06,4.06,0,0,0,320.023,196.931Z" transform="translate(-236.352 -77.168)" fill="#5b9dd3"/>
      <path id="XMLID_522_" d="M250.1,118.092c4.065-19.42,25.066-32.518,33.421-35.792a55.629,55.629,0,0,0-39.405,56.793,3.717,3.717,0,0,0,4.065,3.5l14.452-1.129s-7.9-1.016-10.726-1.807C249.194,138.868,246.033,137.513,250.1,118.092Z" transform="translate(-243.995 -79.737)" fill="#84dff7"/>
      <path id="XMLID_521_" d="M321.074,146.3a35.6,35.6,0,0,1-9.259,9.146,32.418,32.418,0,0,1-7.452,3.613,15.28,15.28,0,0,0-9.71,18.178l1.468,5.645,2.71,10.388c-.79-4.968.452-4.291-.79-10.613-1.581-8.242-3.5-16.372,6.775-21,10.162-4.742,14.452-10.5,16.259-15.356Z" transform="translate(-237.516 -71.475)" fill="#84dff7"/>
    </g>
    <path id="XMLID_301_" d="M57.924,417.952H31.729c-11.968,0,71.02,6.662,252.578,6.662,181.671,0,265-7.113,244.11-7.113C507.642,417.5,57.924,417.952,57.924,417.952Z" transform="translate(0 45.23)" fill="#bf8222"/>
  </g>
</svg>
